<svg width="1200" height="630" xmlns="http://www.w3.org/2000/svg">
  <defs>
    <linearGradient id="bg" x1="0%" y1="0%" x2="100%" y2="100%">
      <stop offset="0%" style="stop-color:#f0fdfa;stop-opacity:1" />
      <stop offset="100%" style="stop-color:#ccfbf1;stop-opacity:1" />
    </linearGradient>
  </defs>
  <rect width="1200" height="630" fill="url(#bg)"/>
  
  <!-- Tooth Icon -->
  <g transform="translate(476, 180) scale(10)">
    <path fill="#5bc8c1" d="M19.5 5c-1.6 0-3 1-3.6 2.4-.4-1.4-1.8-2.4-3.4-2.4-1.6 0-3 1-3.6 2.4-.6-1.4-2-2.4-3.6-2.4-2.3 0-4.1 2-3.8 4.3.8 6.6 4.4 11.7 8.5 11.7 4.1 0 7.7-5.1 8.5-11.7.3-2.3-1.5-4.3-3.8-4.3z"/>
  </g>
  
  <!-- Text -->
  <text x="600" y="500" font-family="sans-serif" font-weight="bold" font-size="80" text-anchor="middle" fill="#1b2027">Omni Dental</text>
  <text x="600" y="560" font-family="sans-serif" font-size="40" text-anchor="middle" fill="#5bc8c1">Odontología con un Toque Suave</text>
</svg>